<mxfile host="app.diagrams.net" modified="2024-05-25T18:37:13.445Z" agent="Mozilla/5.0 (Macintosh; Intel Mac OS X 10_15_7) AppleWebKit/537.36 (KHTML, like Gecko) Chrome/124.0.0.0 Safari/537.36" etag="kvrIqo8_zB-8zbXAr6St" version="24.4.0" type="device">
  <diagram name="Page-1" id="-ZYCApN5Wwl5NKDxl_Fw">
    <mxGraphModel dx="1687" dy="935" grid="1" gridSize="10" guides="1" tooltips="1" connect="1" arrows="1" fold="1" page="1" pageScale="1" pageWidth="850" pageHeight="1100" math="0" shadow="0">
      <root>
        <mxCell id="0" />
        <mxCell id="1" parent="0" />
        <mxCell id="LBr9hsCO0pmCrkEfYy0i-32" value="" style="group" vertex="1" connectable="0" parent="1">
          <mxGeometry x="40" y="330" width="400" height="340" as="geometry" />
        </mxCell>
        <mxCell id="LBr9hsCO0pmCrkEfYy0i-30" value="" style="rounded=0;whiteSpace=wrap;html=1;fillColor=none;" vertex="1" parent="LBr9hsCO0pmCrkEfYy0i-32">
          <mxGeometry width="400" height="340" as="geometry" />
        </mxCell>
        <mxCell id="LBr9hsCO0pmCrkEfYy0i-31" value="1" style="ellipse;whiteSpace=wrap;html=1;aspect=fixed;fontSize=27;fontStyle=1;spacing=2;spacingLeft=2;spacingTop=1;" vertex="1" parent="LBr9hsCO0pmCrkEfYy0i-32">
          <mxGeometry x="10" y="10.880877650992955" width="47.103155911446066" height="47.103155911446066" as="geometry" />
        </mxCell>
        <mxCell id="LBr9hsCO0pmCrkEfYy0i-33" value="Servers" style="text;html=1;align=center;verticalAlign=middle;whiteSpace=wrap;rounded=0;" vertex="1" parent="LBr9hsCO0pmCrkEfYy0i-32">
          <mxGeometry x="290" y="309.0694024815934" width="60" height="29.919920213546092" as="geometry" />
        </mxCell>
        <mxCell id="LBr9hsCO0pmCrkEfYy0i-34" value="Load balancer" style="text;html=1;align=center;verticalAlign=middle;whiteSpace=wrap;rounded=0;" vertex="1" parent="LBr9hsCO0pmCrkEfYy0i-32">
          <mxGeometry x="129" y="309.07" width="90" height="29.92" as="geometry" />
        </mxCell>
        <mxCell id="LBr9hsCO0pmCrkEfYy0i-35" value="User" style="text;html=1;align=center;verticalAlign=middle;whiteSpace=wrap;rounded=0;" vertex="1" parent="LBr9hsCO0pmCrkEfYy0i-32">
          <mxGeometry x="-11.45" y="309.06999999999994" width="90" height="29.92" as="geometry" />
        </mxCell>
        <mxCell id="LBr9hsCO0pmCrkEfYy0i-1" value="&lt;div style=&quot;font-size: 8px;&quot;&gt;&lt;font style=&quot;font-size: 8px;&quot;&gt;&lt;br style=&quot;&quot;&gt;&lt;/font&gt;&lt;/div&gt;v1" style="verticalLabelPosition=middle;html=1;verticalAlign=top;strokeWidth=1;align=center;outlineConnect=0;dashed=0;outlineConnect=0;shape=mxgraph.aws3d.dataServer;strokeColor=#6c8ebf;aspect=fixed;fillColor=#dae8fc;labelPosition=center;fontStyle=1;fontSize=33;" vertex="1" parent="1">
          <mxGeometry x="300" y="340" width="123" height="106" as="geometry" />
        </mxCell>
        <mxCell id="LBr9hsCO0pmCrkEfYy0i-4" value="&lt;div style=&quot;font-size: 8px;&quot;&gt;&lt;font style=&quot;font-size: 8px;&quot;&gt;&lt;br style=&quot;&quot;&gt;&lt;/font&gt;&lt;/div&gt;v1" style="verticalLabelPosition=middle;html=1;verticalAlign=top;strokeWidth=1;align=center;outlineConnect=0;dashed=0;outlineConnect=0;shape=mxgraph.aws3d.dataServer;strokeColor=#6c8ebf;aspect=fixed;fillColor=#dae8fc;labelPosition=center;fontStyle=1;fontSize=33;" vertex="1" parent="1">
          <mxGeometry x="302" y="431.09000000000003" width="123" height="106" as="geometry" />
        </mxCell>
        <mxCell id="LBr9hsCO0pmCrkEfYy0i-5" value="&lt;div style=&quot;font-size: 8px;&quot;&gt;&lt;font style=&quot;font-size: 8px;&quot;&gt;&lt;br style=&quot;&quot;&gt;&lt;/font&gt;&lt;/div&gt;v1" style="verticalLabelPosition=middle;html=1;verticalAlign=top;strokeWidth=1;align=center;outlineConnect=0;dashed=0;outlineConnect=0;shape=mxgraph.aws3d.dataServer;strokeColor=#6c8ebf;aspect=fixed;fillColor=#dae8fc;labelPosition=center;fontStyle=1;fontSize=33;" vertex="1" parent="1">
          <mxGeometry x="300" y="520" width="123" height="106" as="geometry" />
        </mxCell>
        <mxCell id="LBr9hsCO0pmCrkEfYy0i-9" style="edgeStyle=orthogonalEdgeStyle;rounded=0;orthogonalLoop=1;jettySize=auto;html=1;" edge="1" parent="1" source="LBr9hsCO0pmCrkEfYy0i-6" target="LBr9hsCO0pmCrkEfYy0i-1">
          <mxGeometry relative="1" as="geometry" />
        </mxCell>
        <mxCell id="LBr9hsCO0pmCrkEfYy0i-10" style="edgeStyle=orthogonalEdgeStyle;rounded=0;orthogonalLoop=1;jettySize=auto;html=1;" edge="1" parent="1" source="LBr9hsCO0pmCrkEfYy0i-6" target="LBr9hsCO0pmCrkEfYy0i-4">
          <mxGeometry relative="1" as="geometry" />
        </mxCell>
        <mxCell id="LBr9hsCO0pmCrkEfYy0i-11" style="edgeStyle=orthogonalEdgeStyle;rounded=0;orthogonalLoop=1;jettySize=auto;html=1;" edge="1" parent="1" source="LBr9hsCO0pmCrkEfYy0i-6" target="LBr9hsCO0pmCrkEfYy0i-5">
          <mxGeometry relative="1" as="geometry" />
        </mxCell>
        <mxCell id="LBr9hsCO0pmCrkEfYy0i-6" value="" style="verticalLabelPosition=bottom;html=1;verticalAlign=top;strokeWidth=1;align=center;outlineConnect=0;dashed=0;outlineConnect=0;shape=mxgraph.aws3d.elasticLoadBalancing;fillColor=#ECECEC;strokeColor=#5E5E5E;aspect=fixed;" vertex="1" parent="1">
          <mxGeometry x="160" y="440.01" width="92" height="88.17" as="geometry" />
        </mxCell>
        <mxCell id="LBr9hsCO0pmCrkEfYy0i-8" style="edgeStyle=orthogonalEdgeStyle;rounded=0;orthogonalLoop=1;jettySize=auto;html=1;" edge="1" parent="1" source="LBr9hsCO0pmCrkEfYy0i-7" target="LBr9hsCO0pmCrkEfYy0i-6">
          <mxGeometry relative="1" as="geometry" />
        </mxCell>
        <mxCell id="LBr9hsCO0pmCrkEfYy0i-7" value="" style="verticalLabelPosition=bottom;html=1;verticalAlign=top;strokeWidth=1;align=center;outlineConnect=0;dashed=0;outlineConnect=0;shape=mxgraph.aws3d.end_user;strokeColor=none;fillColor=#777777;aspect=fixed;" vertex="1" parent="1">
          <mxGeometry x="50" y="433.86" width="49" height="100.46" as="geometry" />
        </mxCell>
        <mxCell id="LBr9hsCO0pmCrkEfYy0i-36" value="" style="group" vertex="1" connectable="0" parent="1">
          <mxGeometry x="460" y="330" width="400" height="340" as="geometry" />
        </mxCell>
        <mxCell id="LBr9hsCO0pmCrkEfYy0i-37" value="" style="rounded=0;whiteSpace=wrap;html=1;fillColor=none;" vertex="1" parent="LBr9hsCO0pmCrkEfYy0i-36">
          <mxGeometry width="400" height="340" as="geometry" />
        </mxCell>
        <mxCell id="LBr9hsCO0pmCrkEfYy0i-38" value="2" style="ellipse;whiteSpace=wrap;html=1;aspect=fixed;fontSize=27;fontStyle=1;spacing=2;spacingLeft=2;spacingTop=1;" vertex="1" parent="LBr9hsCO0pmCrkEfYy0i-36">
          <mxGeometry x="10" y="10.880877650992955" width="47.103155911446066" height="47.103155911446066" as="geometry" />
        </mxCell>
        <mxCell id="LBr9hsCO0pmCrkEfYy0i-39" value="Servers" style="text;html=1;align=center;verticalAlign=middle;whiteSpace=wrap;rounded=0;" vertex="1" parent="LBr9hsCO0pmCrkEfYy0i-36">
          <mxGeometry x="290" y="309.0694024815934" width="60" height="29.919920213546092" as="geometry" />
        </mxCell>
        <mxCell id="LBr9hsCO0pmCrkEfYy0i-40" value="Load balancer" style="text;html=1;align=center;verticalAlign=middle;whiteSpace=wrap;rounded=0;" vertex="1" parent="LBr9hsCO0pmCrkEfYy0i-36">
          <mxGeometry x="129" y="309.07" width="90" height="29.92" as="geometry" />
        </mxCell>
        <mxCell id="LBr9hsCO0pmCrkEfYy0i-41" value="User" style="text;html=1;align=center;verticalAlign=middle;whiteSpace=wrap;rounded=0;" vertex="1" parent="LBr9hsCO0pmCrkEfYy0i-36">
          <mxGeometry x="-11.45" y="309.06999999999994" width="90" height="29.92" as="geometry" />
        </mxCell>
        <mxCell id="LBr9hsCO0pmCrkEfYy0i-67" value="" style="shape=mxgraph.mockup.markup.redX;fillColor=#ff0000;html=1;shadow=0;whiteSpace=wrap;strokeColor=none;" vertex="1" parent="LBr9hsCO0pmCrkEfYy0i-36">
          <mxGeometry x="70" y="138" width="30" height="33.33" as="geometry" />
        </mxCell>
        <mxCell id="LBr9hsCO0pmCrkEfYy0i-68" value="" style="shape=mxgraph.mockup.markup.redX;fillColor=#ff0000;html=1;shadow=0;whiteSpace=wrap;strokeColor=none;" vertex="1" parent="LBr9hsCO0pmCrkEfYy0i-36">
          <mxGeometry x="220" y="138" width="30" height="33.33" as="geometry" />
        </mxCell>
        <mxCell id="LBr9hsCO0pmCrkEfYy0i-69" value="" style="shape=mxgraph.mockup.markup.redX;fillColor=#ff0000;html=1;shadow=0;whiteSpace=wrap;strokeColor=none;" vertex="1" parent="LBr9hsCO0pmCrkEfYy0i-36">
          <mxGeometry x="220" y="50" width="30" height="33.33" as="geometry" />
        </mxCell>
        <mxCell id="LBr9hsCO0pmCrkEfYy0i-42" value="&lt;div style=&quot;font-size: 8px;&quot;&gt;&lt;/div&gt;" style="verticalLabelPosition=middle;html=1;verticalAlign=top;strokeWidth=1;align=center;outlineConnect=0;dashed=0;outlineConnect=0;shape=mxgraph.aws3d.dataServer;strokeColor=#666666;aspect=fixed;fillColor=#f5f5f5;labelPosition=center;fontStyle=1;fontSize=33;fontColor=#333333;" vertex="1" parent="1">
          <mxGeometry x="720" y="340" width="123" height="106" as="geometry" />
        </mxCell>
        <mxCell id="LBr9hsCO0pmCrkEfYy0i-43" value="&lt;div style=&quot;font-size: 8px;&quot;&gt;&lt;/div&gt;" style="verticalLabelPosition=middle;html=1;verticalAlign=top;strokeWidth=1;align=center;outlineConnect=0;dashed=0;outlineConnect=0;shape=mxgraph.aws3d.dataServer;strokeColor=#666666;aspect=fixed;fillColor=#f5f5f5;labelPosition=center;fontStyle=1;fontSize=33;fontColor=#333333;" vertex="1" parent="1">
          <mxGeometry x="722" y="431.09000000000003" width="123" height="106" as="geometry" />
        </mxCell>
        <mxCell id="LBr9hsCO0pmCrkEfYy0i-44" value="&lt;div style=&quot;font-size: 8px;&quot;&gt;&lt;/div&gt;" style="verticalLabelPosition=middle;html=1;verticalAlign=top;strokeWidth=1;align=center;outlineConnect=0;dashed=0;outlineConnect=0;shape=mxgraph.aws3d.dataServer;strokeColor=#666666;aspect=fixed;fillColor=#f5f5f5;labelPosition=center;fontStyle=1;fontSize=33;fontColor=#333333;" vertex="1" parent="1">
          <mxGeometry x="720" y="520" width="123" height="106" as="geometry" />
        </mxCell>
        <mxCell id="LBr9hsCO0pmCrkEfYy0i-45" style="edgeStyle=orthogonalEdgeStyle;rounded=0;orthogonalLoop=1;jettySize=auto;html=1;" edge="1" parent="1" source="LBr9hsCO0pmCrkEfYy0i-48" target="LBr9hsCO0pmCrkEfYy0i-42">
          <mxGeometry relative="1" as="geometry" />
        </mxCell>
        <mxCell id="LBr9hsCO0pmCrkEfYy0i-46" style="edgeStyle=orthogonalEdgeStyle;rounded=0;orthogonalLoop=1;jettySize=auto;html=1;" edge="1" parent="1" source="LBr9hsCO0pmCrkEfYy0i-48" target="LBr9hsCO0pmCrkEfYy0i-43">
          <mxGeometry relative="1" as="geometry" />
        </mxCell>
        <mxCell id="LBr9hsCO0pmCrkEfYy0i-47" style="edgeStyle=orthogonalEdgeStyle;rounded=0;orthogonalLoop=1;jettySize=auto;html=1;" edge="1" parent="1" source="LBr9hsCO0pmCrkEfYy0i-70" target="LBr9hsCO0pmCrkEfYy0i-44">
          <mxGeometry relative="1" as="geometry" />
        </mxCell>
        <mxCell id="LBr9hsCO0pmCrkEfYy0i-48" value="" style="verticalLabelPosition=bottom;html=1;verticalAlign=top;strokeWidth=1;align=center;outlineConnect=0;dashed=0;outlineConnect=0;shape=mxgraph.aws3d.elasticLoadBalancing;fillColor=#ECECEC;strokeColor=#5E5E5E;aspect=fixed;" vertex="1" parent="1">
          <mxGeometry x="580" y="440.01" width="92" height="88.17" as="geometry" />
        </mxCell>
        <mxCell id="LBr9hsCO0pmCrkEfYy0i-49" style="edgeStyle=orthogonalEdgeStyle;rounded=0;orthogonalLoop=1;jettySize=auto;html=1;" edge="1" parent="1" source="LBr9hsCO0pmCrkEfYy0i-50" target="LBr9hsCO0pmCrkEfYy0i-48">
          <mxGeometry relative="1" as="geometry" />
        </mxCell>
        <mxCell id="LBr9hsCO0pmCrkEfYy0i-50" value="" style="verticalLabelPosition=bottom;html=1;verticalAlign=top;strokeWidth=1;align=center;outlineConnect=0;dashed=0;outlineConnect=0;shape=mxgraph.aws3d.end_user;strokeColor=none;fillColor=#777777;aspect=fixed;" vertex="1" parent="1">
          <mxGeometry x="470" y="433.86" width="49" height="100.46" as="geometry" />
        </mxCell>
        <mxCell id="LBr9hsCO0pmCrkEfYy0i-51" value="" style="group" vertex="1" connectable="0" parent="1">
          <mxGeometry x="880" y="330" width="400" height="340" as="geometry" />
        </mxCell>
        <mxCell id="LBr9hsCO0pmCrkEfYy0i-52" value="" style="rounded=0;whiteSpace=wrap;html=1;fillColor=none;" vertex="1" parent="LBr9hsCO0pmCrkEfYy0i-51">
          <mxGeometry width="400" height="340" as="geometry" />
        </mxCell>
        <mxCell id="LBr9hsCO0pmCrkEfYy0i-53" value="3" style="ellipse;whiteSpace=wrap;html=1;aspect=fixed;fontSize=27;fontStyle=1;spacing=2;spacingLeft=2;spacingTop=1;" vertex="1" parent="LBr9hsCO0pmCrkEfYy0i-51">
          <mxGeometry x="10" y="10.880877650992955" width="47.103155911446066" height="47.103155911446066" as="geometry" />
        </mxCell>
        <mxCell id="LBr9hsCO0pmCrkEfYy0i-54" value="Servers" style="text;html=1;align=center;verticalAlign=middle;whiteSpace=wrap;rounded=0;" vertex="1" parent="LBr9hsCO0pmCrkEfYy0i-51">
          <mxGeometry x="290" y="309.0694024815934" width="60" height="29.919920213546092" as="geometry" />
        </mxCell>
        <mxCell id="LBr9hsCO0pmCrkEfYy0i-55" value="Load balancer" style="text;html=1;align=center;verticalAlign=middle;whiteSpace=wrap;rounded=0;" vertex="1" parent="LBr9hsCO0pmCrkEfYy0i-51">
          <mxGeometry x="129" y="309.07" width="90" height="29.92" as="geometry" />
        </mxCell>
        <mxCell id="LBr9hsCO0pmCrkEfYy0i-56" value="User" style="text;html=1;align=center;verticalAlign=middle;whiteSpace=wrap;rounded=0;" vertex="1" parent="LBr9hsCO0pmCrkEfYy0i-51">
          <mxGeometry x="-11.45" y="309.06999999999994" width="90" height="29.92" as="geometry" />
        </mxCell>
        <mxCell id="LBr9hsCO0pmCrkEfYy0i-57" value="&lt;div style=&quot;font-size: 8px;&quot;&gt;&lt;font style=&quot;font-size: 8px;&quot;&gt;&lt;br style=&quot;&quot;&gt;&lt;/font&gt;&lt;/div&gt;v2" style="verticalLabelPosition=middle;html=1;verticalAlign=top;strokeWidth=1;align=center;outlineConnect=0;dashed=0;outlineConnect=0;shape=mxgraph.aws3d.dataServer;strokeColor=#82b366;aspect=fixed;fillColor=#d5e8d4;labelPosition=center;fontStyle=1;fontSize=33;" vertex="1" parent="1">
          <mxGeometry x="1140" y="340" width="123" height="106" as="geometry" />
        </mxCell>
        <mxCell id="LBr9hsCO0pmCrkEfYy0i-58" value="&lt;div style=&quot;font-size: 8px;&quot;&gt;&lt;font style=&quot;font-size: 8px;&quot;&gt;&lt;br style=&quot;&quot;&gt;&lt;/font&gt;&lt;/div&gt;v2" style="verticalLabelPosition=middle;html=1;verticalAlign=top;strokeWidth=1;align=center;outlineConnect=0;dashed=0;outlineConnect=0;shape=mxgraph.aws3d.dataServer;strokeColor=#82b366;aspect=fixed;fillColor=#d5e8d4;labelPosition=center;fontStyle=1;fontSize=33;" vertex="1" parent="1">
          <mxGeometry x="1142" y="431.09000000000003" width="123" height="106" as="geometry" />
        </mxCell>
        <mxCell id="LBr9hsCO0pmCrkEfYy0i-59" value="&lt;div style=&quot;font-size: 8px;&quot;&gt;&lt;font style=&quot;font-size: 8px;&quot;&gt;&lt;br style=&quot;&quot;&gt;&lt;/font&gt;&lt;/div&gt;v2" style="verticalLabelPosition=middle;html=1;verticalAlign=top;strokeWidth=1;align=center;outlineConnect=0;dashed=0;outlineConnect=0;shape=mxgraph.aws3d.dataServer;strokeColor=#82b366;aspect=fixed;fillColor=#d5e8d4;labelPosition=center;fontStyle=1;fontSize=33;" vertex="1" parent="1">
          <mxGeometry x="1140" y="520" width="123" height="106" as="geometry" />
        </mxCell>
        <mxCell id="LBr9hsCO0pmCrkEfYy0i-60" style="edgeStyle=orthogonalEdgeStyle;rounded=0;orthogonalLoop=1;jettySize=auto;html=1;" edge="1" parent="1" source="LBr9hsCO0pmCrkEfYy0i-63" target="LBr9hsCO0pmCrkEfYy0i-57">
          <mxGeometry relative="1" as="geometry" />
        </mxCell>
        <mxCell id="LBr9hsCO0pmCrkEfYy0i-61" style="edgeStyle=orthogonalEdgeStyle;rounded=0;orthogonalLoop=1;jettySize=auto;html=1;" edge="1" parent="1" source="LBr9hsCO0pmCrkEfYy0i-63" target="LBr9hsCO0pmCrkEfYy0i-58">
          <mxGeometry relative="1" as="geometry" />
        </mxCell>
        <mxCell id="LBr9hsCO0pmCrkEfYy0i-62" style="edgeStyle=orthogonalEdgeStyle;rounded=0;orthogonalLoop=1;jettySize=auto;html=1;" edge="1" parent="1" source="LBr9hsCO0pmCrkEfYy0i-63" target="LBr9hsCO0pmCrkEfYy0i-59">
          <mxGeometry relative="1" as="geometry" />
        </mxCell>
        <mxCell id="LBr9hsCO0pmCrkEfYy0i-63" value="" style="verticalLabelPosition=bottom;html=1;verticalAlign=top;strokeWidth=1;align=center;outlineConnect=0;dashed=0;outlineConnect=0;shape=mxgraph.aws3d.elasticLoadBalancing;fillColor=#ECECEC;strokeColor=#5E5E5E;aspect=fixed;" vertex="1" parent="1">
          <mxGeometry x="1000" y="440.01" width="92" height="88.17" as="geometry" />
        </mxCell>
        <mxCell id="LBr9hsCO0pmCrkEfYy0i-64" style="edgeStyle=orthogonalEdgeStyle;rounded=0;orthogonalLoop=1;jettySize=auto;html=1;" edge="1" parent="1" source="LBr9hsCO0pmCrkEfYy0i-65" target="LBr9hsCO0pmCrkEfYy0i-63">
          <mxGeometry relative="1" as="geometry" />
        </mxCell>
        <mxCell id="LBr9hsCO0pmCrkEfYy0i-65" value="" style="verticalLabelPosition=bottom;html=1;verticalAlign=top;strokeWidth=1;align=center;outlineConnect=0;dashed=0;outlineConnect=0;shape=mxgraph.aws3d.end_user;strokeColor=none;fillColor=#777777;aspect=fixed;" vertex="1" parent="1">
          <mxGeometry x="890" y="433.86" width="49" height="100.46" as="geometry" />
        </mxCell>
        <mxCell id="LBr9hsCO0pmCrkEfYy0i-71" value="" style="edgeStyle=orthogonalEdgeStyle;rounded=0;orthogonalLoop=1;jettySize=auto;html=1;" edge="1" parent="1" source="LBr9hsCO0pmCrkEfYy0i-48" target="LBr9hsCO0pmCrkEfYy0i-70">
          <mxGeometry relative="1" as="geometry">
            <mxPoint x="672" y="484" as="sourcePoint" />
            <mxPoint x="720" y="573" as="targetPoint" />
          </mxGeometry>
        </mxCell>
        <mxCell id="LBr9hsCO0pmCrkEfYy0i-70" value="" style="shape=mxgraph.mockup.markup.redX;fillColor=#ff0000;html=1;shadow=0;whiteSpace=wrap;strokeColor=none;" vertex="1" parent="1">
          <mxGeometry x="680" y="556.33" width="30" height="33.33" as="geometry" />
        </mxCell>
        <mxCell id="LBr9hsCO0pmCrkEfYy0i-72" value="" style="shape=image;html=1;verticalAlign=top;verticalLabelPosition=bottom;labelBackgroundColor=#ffffff;imageAspect=0;aspect=fixed;image=https://cdn4.iconfinder.com/data/icons/ionicons/512/icon-refresh-128.png" vertex="1" parent="1">
          <mxGeometry x="760.5" y="351" width="48" height="48" as="geometry" />
        </mxCell>
        <mxCell id="LBr9hsCO0pmCrkEfYy0i-73" value="" style="shape=image;html=1;verticalAlign=top;verticalLabelPosition=bottom;labelBackgroundColor=#ffffff;imageAspect=0;aspect=fixed;image=https://cdn4.iconfinder.com/data/icons/ionicons/512/icon-refresh-128.png" vertex="1" parent="1">
          <mxGeometry x="760.5" y="443" width="48" height="48" as="geometry" />
        </mxCell>
        <mxCell id="LBr9hsCO0pmCrkEfYy0i-74" value="" style="shape=image;html=1;verticalAlign=top;verticalLabelPosition=bottom;labelBackgroundColor=#ffffff;imageAspect=0;aspect=fixed;image=https://cdn4.iconfinder.com/data/icons/ionicons/512/icon-refresh-128.png" vertex="1" parent="1">
          <mxGeometry x="759.5" y="534.3199999999999" width="48" height="48" as="geometry" />
        </mxCell>
      </root>
    </mxGraphModel>
  </diagram>
</mxfile>
